# Blender v2.76 (sub 0) OBJ File: ''
# www.blender.org
mtllib pyramid.mtl
o Cube
v 1.000000 -1.000000 -1.000000
v 1.000000 -1.000000 1.000000
v -1.000000 -1.000000 1.000000
v -1.000000 -1.000000 -1.000000
v 0.000282 0.280855 -0.000282
vn 0.000000 -1.000000 0.000000
vn -0.788100 0.615500 -0.000000
vn 0.000000 0.615300 -0.788300
vn 0.788300 0.615300 0.000000
vn -0.000000 0.615500 0.788100
usemtl Material
s off
f 2//1 3//1 4//1
f 4//2 3//2 5//2
f 1//3 4//3 5//3
f 1//4 5//4 2//4
f 3//5 2//5 5//5
f 1//1 2//1 4//1
